<svg width="80" height="73" viewBox="0 0 80 73" fill="none" xmlns="http://www.w3.org/2000/svg">
<path d="M73.1953 0.00655537C72.0395 0.0568354 70.9787 0.389275 70.0469 0.756555C69.186 1.09559 66.0945 2.39495 61.1719 4.45968C56.2492 6.52442 49.7263 9.26199 42.7734 12.1862C28.8678 18.0347 13.2413 24.6136 5.23438 27.9831C4.95941 28.0977 3.84272 28.4395 2.60938 29.3816C1.37317 30.3258 0 32.3749 0 34.6159C0 36.4237 0.902455 38.2649 1.99219 39.3191C3.08192 40.3732 4.18634 40.866 5.10938 41.2331V41.2253C8.22949 42.4684 17.5472 46.1968 19.7656 47.0847C20.5525 49.4428 23.9307 59.5382 24.7344 62.0769H24.7266C25.2946 63.8737 25.8483 65.0447 26.6172 66.0222C27.0016 66.5109 27.4605 66.9538 28.0234 67.3034C28.2394 67.4376 28.4786 67.5416 28.7188 67.6394C28.7522 67.6536 28.7867 67.6571 28.8203 67.6706L28.7266 67.6472C28.7962 67.6752 28.8587 67.7165 28.9297 67.7409C29.0453 67.7808 29.1255 67.7794 29.2812 67.8112C29.8293 67.9798 30.3763 68.0925 30.8828 68.0925C33.0573 68.0925 34.3906 66.9128 34.3906 66.9128L34.4766 66.8503L43.8672 58.905L55.3672 69.5456C55.5772 69.8422 57.2228 72.0691 61.0312 72.0691C63.3038 72.0691 65.1005 70.9442 66.25 69.7644C67.3995 68.5845 68.1156 67.3773 68.4375 65.7409L68.4453 65.7331C68.702 64.4124 79.7109 9.13156 79.7109 9.13156L79.6875 9.22531C80.0301 7.69592 80.1313 6.21691 79.7266 4.70968C79.3218 3.20245 78.2295 1.73156 76.9141 0.95968C75.5987 0.187805 74.3512 -0.0437262 73.1953 0.00655537ZM71.6172 8.76437C71.1821 10.9485 61.3204 60.4926 60.7109 63.6003L44.1016 48.2331L32.875 57.7253L35.9844 45.5691C35.9844 45.5691 57.4346 23.8565 58.7266 22.5925C59.7666 21.5805 59.9844 21.2257 59.9844 20.8737C59.9844 20.4057 59.7435 20.0691 59.1875 20.0691C58.6875 20.0691 58.0084 20.5482 57.6484 20.7722C53.0738 23.6242 33.5895 34.7278 24.0078 40.1784C23.4312 39.9472 14.774 36.4709 10.1094 34.6081C18.4064 31.1161 32.629 25.1323 45.875 19.5612C52.8267 16.6375 59.3477 13.8974 64.2656 11.8347C68.417 10.0934 70.5825 9.19187 71.6172 8.76437ZM60.5938 64.1706H60.6016L60.5938 64.1941C60.5988 64.1682 60.5899 64.1909 60.5938 64.1706Z" fill="#282828"/>
</svg>
